<mxfile host="Electron" modified="2024-04-15T18:27:26.917Z" agent="Mozilla/5.0 (Windows NT 10.0; Win64; x64) AppleWebKit/537.36 (KHTML, like Gecko) draw.io/21.1.2 Chrome/106.0.5249.199 Electron/21.4.3 Safari/537.36" etag="hHAusl6GX3SqwBsp08WY" version="21.1.2" type="device" pages="4">
  <diagram id="jsgenobVIxJ-Q_t5yMRL" name="Страница 2">
    <mxGraphModel dx="1418" dy="828" grid="1" gridSize="10" guides="1" tooltips="1" connect="1" arrows="1" fold="1" page="1" pageScale="1" pageWidth="827" pageHeight="1169" math="0" shadow="0">
      <root>
        <mxCell id="0" />
        <mxCell id="1" parent="0" />
        <mxCell id="JwuotUyz37pWbvxtIua6-1" style="edgeStyle=orthogonalEdgeStyle;rounded=0;orthogonalLoop=1;jettySize=auto;html=1;entryX=0;entryY=0.5;entryDx=0;entryDy=0;endArrow=none;endFill=0;" parent="1" source="JwuotUyz37pWbvxtIua6-8" target="JwuotUyz37pWbvxtIua6-10" edge="1">
          <mxGeometry relative="1" as="geometry" />
        </mxCell>
        <mxCell id="JwuotUyz37pWbvxtIua6-2" style="edgeStyle=orthogonalEdgeStyle;rounded=0;orthogonalLoop=1;jettySize=auto;html=1;entryX=0;entryY=0.5;entryDx=0;entryDy=0;endArrow=none;endFill=0;" parent="1" source="JwuotUyz37pWbvxtIua6-8" target="JwuotUyz37pWbvxtIua6-28" edge="1">
          <mxGeometry relative="1" as="geometry" />
        </mxCell>
        <mxCell id="JwuotUyz37pWbvxtIua6-3" style="edgeStyle=orthogonalEdgeStyle;rounded=0;orthogonalLoop=1;jettySize=auto;html=1;entryX=0;entryY=0.5;entryDx=0;entryDy=0;endArrow=none;endFill=0;" parent="1" source="JwuotUyz37pWbvxtIua6-8" target="JwuotUyz37pWbvxtIua6-30" edge="1">
          <mxGeometry relative="1" as="geometry" />
        </mxCell>
        <mxCell id="JwuotUyz37pWbvxtIua6-4" style="edgeStyle=orthogonalEdgeStyle;rounded=0;orthogonalLoop=1;jettySize=auto;html=1;entryX=0;entryY=0.5;entryDx=0;entryDy=0;endArrow=none;endFill=0;" parent="1" source="JwuotUyz37pWbvxtIua6-8" target="JwuotUyz37pWbvxtIua6-32" edge="1">
          <mxGeometry relative="1" as="geometry" />
        </mxCell>
        <mxCell id="JwuotUyz37pWbvxtIua6-5" style="edgeStyle=orthogonalEdgeStyle;rounded=0;orthogonalLoop=1;jettySize=auto;html=1;entryX=0;entryY=0.5;entryDx=0;entryDy=0;endArrow=none;endFill=0;" parent="1" source="JwuotUyz37pWbvxtIua6-8" target="JwuotUyz37pWbvxtIua6-40" edge="1">
          <mxGeometry relative="1" as="geometry" />
        </mxCell>
        <mxCell id="JwuotUyz37pWbvxtIua6-6" style="edgeStyle=orthogonalEdgeStyle;rounded=0;orthogonalLoop=1;jettySize=auto;html=1;entryX=0;entryY=0.5;entryDx=0;entryDy=0;endArrow=none;endFill=0;" parent="1" source="JwuotUyz37pWbvxtIua6-8" target="JwuotUyz37pWbvxtIua6-42" edge="1">
          <mxGeometry relative="1" as="geometry" />
        </mxCell>
        <mxCell id="JwuotUyz37pWbvxtIua6-7" style="edgeStyle=orthogonalEdgeStyle;rounded=0;orthogonalLoop=1;jettySize=auto;html=1;entryX=0;entryY=0.5;entryDx=0;entryDy=0;endArrow=none;endFill=0;" parent="1" source="JwuotUyz37pWbvxtIua6-8" target="JwuotUyz37pWbvxtIua6-52" edge="1">
          <mxGeometry relative="1" as="geometry" />
        </mxCell>
        <mxCell id="JwuotUyz37pWbvxtIua6-8" value="Користувач" style="shape=umlActor;verticalLabelPosition=bottom;verticalAlign=top;html=1;outlineConnect=0;" parent="1" vertex="1">
          <mxGeometry x="80" y="160" width="30" height="60" as="geometry" />
        </mxCell>
        <mxCell id="JwuotUyz37pWbvxtIua6-10" value="Реєстрація" style="ellipse;whiteSpace=wrap;html=1;" parent="1" vertex="1">
          <mxGeometry x="230" y="30" width="120" height="70" as="geometry" />
        </mxCell>
        <mxCell id="JwuotUyz37pWbvxtIua6-24" value="Вхід до аккаунту" style="ellipse;whiteSpace=wrap;html=1;" parent="1" vertex="1">
          <mxGeometry x="230" y="710" width="120" height="70" as="geometry" />
        </mxCell>
        <mxCell id="JwuotUyz37pWbvxtIua6-26" value="Створення новини" style="ellipse;whiteSpace=wrap;html=1;" parent="1" vertex="1">
          <mxGeometry x="230" y="620" width="120" height="70" as="geometry" />
        </mxCell>
        <mxCell id="JwuotUyz37pWbvxtIua6-28" value="Реагування на новину" style="ellipse;whiteSpace=wrap;html=1;" parent="1" vertex="1">
          <mxGeometry x="230" y="110" width="120" height="70" as="geometry" />
        </mxCell>
        <mxCell id="JwuotUyz37pWbvxtIua6-30" value="Написання комантарю" style="ellipse;whiteSpace=wrap;html=1;" parent="1" vertex="1">
          <mxGeometry x="230" y="190" width="120" height="70" as="geometry" />
        </mxCell>
        <mxCell id="JwuotUyz37pWbvxtIua6-32" value="Репост посилання на новину до соц. мереж" style="ellipse;whiteSpace=wrap;html=1;" parent="1" vertex="1">
          <mxGeometry x="230" y="350" width="120" height="70" as="geometry" />
        </mxCell>
        <mxCell id="jrGEfASwu3TX69Rrp1Gd-1" style="edgeStyle=orthogonalEdgeStyle;rounded=0;orthogonalLoop=1;jettySize=auto;html=1;entryX=0;entryY=0.5;entryDx=0;entryDy=0;endArrow=none;endFill=0;" parent="1" source="JwuotUyz37pWbvxtIua6-35" target="JwuotUyz37pWbvxtIua6-24" edge="1">
          <mxGeometry relative="1" as="geometry">
            <Array as="points">
              <mxPoint x="130" y="420" />
              <mxPoint x="130" y="745" />
            </Array>
          </mxGeometry>
        </mxCell>
        <mxCell id="jrGEfASwu3TX69Rrp1Gd-2" style="edgeStyle=orthogonalEdgeStyle;rounded=0;orthogonalLoop=1;jettySize=auto;html=1;entryX=0;entryY=0.5;entryDx=0;entryDy=0;endArrow=none;endFill=0;" parent="1" source="JwuotUyz37pWbvxtIua6-35" target="JwuotUyz37pWbvxtIua6-26" edge="1">
          <mxGeometry relative="1" as="geometry">
            <Array as="points">
              <mxPoint x="130" y="420" />
              <mxPoint x="130" y="655" />
            </Array>
          </mxGeometry>
        </mxCell>
        <mxCell id="jrGEfASwu3TX69Rrp1Gd-3" style="edgeStyle=orthogonalEdgeStyle;rounded=0;orthogonalLoop=1;jettySize=auto;html=1;entryX=0;entryY=0.5;entryDx=0;entryDy=0;endArrow=none;endFill=0;" parent="1" source="JwuotUyz37pWbvxtIua6-35" target="JwuotUyz37pWbvxtIua6-52" edge="1">
          <mxGeometry relative="1" as="geometry" />
        </mxCell>
        <mxCell id="JwuotUyz37pWbvxtIua6-35" value="Автор" style="shape=umlActor;verticalLabelPosition=bottom;verticalAlign=top;html=1;outlineConnect=0;" parent="1" vertex="1">
          <mxGeometry x="80" y="390" width="30" height="60" as="geometry" />
        </mxCell>
        <mxCell id="JwuotUyz37pWbvxtIua6-36" style="edgeStyle=orthogonalEdgeStyle;rounded=0;orthogonalLoop=1;jettySize=auto;html=1;entryX=0;entryY=0.5;entryDx=0;entryDy=0;endArrow=none;endFill=0;" parent="1" source="JwuotUyz37pWbvxtIua6-38" target="JwuotUyz37pWbvxtIua6-44" edge="1">
          <mxGeometry relative="1" as="geometry">
            <Array as="points">
              <mxPoint x="380" y="420" />
              <mxPoint x="380" y="835" />
            </Array>
          </mxGeometry>
        </mxCell>
        <mxCell id="JwuotUyz37pWbvxtIua6-37" style="edgeStyle=orthogonalEdgeStyle;rounded=0;orthogonalLoop=1;jettySize=auto;html=1;entryX=0;entryY=0.5;entryDx=0;entryDy=0;endArrow=none;endFill=0;" parent="1" source="JwuotUyz37pWbvxtIua6-38" target="JwuotUyz37pWbvxtIua6-50" edge="1">
          <mxGeometry relative="1" as="geometry">
            <Array as="points">
              <mxPoint x="380" y="420" />
              <mxPoint x="380" y="925" />
            </Array>
          </mxGeometry>
        </mxCell>
        <mxCell id="jrGEfASwu3TX69Rrp1Gd-5" style="edgeStyle=orthogonalEdgeStyle;rounded=0;orthogonalLoop=1;jettySize=auto;html=1;entryX=1;entryY=0.5;entryDx=0;entryDy=0;endArrow=none;endFill=0;" parent="1" source="JwuotUyz37pWbvxtIua6-38" target="JwuotUyz37pWbvxtIua6-24" edge="1">
          <mxGeometry relative="1" as="geometry">
            <Array as="points">
              <mxPoint x="380" y="420" />
              <mxPoint x="380" y="745" />
            </Array>
          </mxGeometry>
        </mxCell>
        <mxCell id="jrGEfASwu3TX69Rrp1Gd-6" style="edgeStyle=orthogonalEdgeStyle;rounded=0;orthogonalLoop=1;jettySize=auto;html=1;entryX=1;entryY=0.5;entryDx=0;entryDy=0;endArrow=none;endFill=0;" parent="1" source="JwuotUyz37pWbvxtIua6-38" target="JwuotUyz37pWbvxtIua6-26" edge="1">
          <mxGeometry relative="1" as="geometry">
            <Array as="points">
              <mxPoint x="380" y="420" />
              <mxPoint x="380" y="655" />
            </Array>
          </mxGeometry>
        </mxCell>
        <mxCell id="jrGEfASwu3TX69Rrp1Gd-7" style="edgeStyle=orthogonalEdgeStyle;rounded=0;orthogonalLoop=1;jettySize=auto;html=1;entryX=1;entryY=0.5;entryDx=0;entryDy=0;endArrow=none;endFill=0;" parent="1" source="JwuotUyz37pWbvxtIua6-38" target="JwuotUyz37pWbvxtIua6-52" edge="1">
          <mxGeometry relative="1" as="geometry">
            <Array as="points">
              <mxPoint x="380" y="420" />
              <mxPoint x="380" y="475" />
            </Array>
          </mxGeometry>
        </mxCell>
        <mxCell id="jrGEfASwu3TX69Rrp1Gd-8" style="edgeStyle=orthogonalEdgeStyle;rounded=0;orthogonalLoop=1;jettySize=auto;html=1;entryX=1;entryY=0.5;entryDx=0;entryDy=0;endArrow=none;endFill=0;" parent="1" source="JwuotUyz37pWbvxtIua6-38" target="JwuotUyz37pWbvxtIua6-40" edge="1">
          <mxGeometry relative="1" as="geometry">
            <Array as="points">
              <mxPoint x="380" y="420" />
              <mxPoint x="380" y="565" />
            </Array>
          </mxGeometry>
        </mxCell>
        <mxCell id="jrGEfASwu3TX69Rrp1Gd-9" style="edgeStyle=orthogonalEdgeStyle;rounded=0;orthogonalLoop=1;jettySize=auto;html=1;entryX=1;entryY=0.5;entryDx=0;entryDy=0;endArrow=none;endFill=0;" parent="1" source="JwuotUyz37pWbvxtIua6-38" target="PnoXssII64kV3W4k1HJd-6" edge="1">
          <mxGeometry relative="1" as="geometry">
            <Array as="points">
              <mxPoint x="380" y="420" />
              <mxPoint x="380" y="385" />
            </Array>
          </mxGeometry>
        </mxCell>
        <mxCell id="jrGEfASwu3TX69Rrp1Gd-10" style="edgeStyle=orthogonalEdgeStyle;rounded=0;orthogonalLoop=1;jettySize=auto;html=1;entryX=1;entryY=0.5;entryDx=0;entryDy=0;endArrow=none;endFill=0;" parent="1" source="JwuotUyz37pWbvxtIua6-38" target="JwuotUyz37pWbvxtIua6-42" edge="1">
          <mxGeometry relative="1" as="geometry">
            <Array as="points">
              <mxPoint x="380" y="420" />
              <mxPoint x="380" y="305" />
            </Array>
          </mxGeometry>
        </mxCell>
        <mxCell id="jrGEfASwu3TX69Rrp1Gd-11" style="edgeStyle=orthogonalEdgeStyle;rounded=0;orthogonalLoop=1;jettySize=auto;html=1;entryX=1;entryY=0.5;entryDx=0;entryDy=0;endArrow=none;endFill=0;" parent="1" source="JwuotUyz37pWbvxtIua6-38" target="PnoXssII64kV3W4k1HJd-5" edge="1">
          <mxGeometry relative="1" as="geometry">
            <Array as="points">
              <mxPoint x="380" y="420" />
              <mxPoint x="380" y="225" />
            </Array>
          </mxGeometry>
        </mxCell>
        <mxCell id="jrGEfASwu3TX69Rrp1Gd-12" style="edgeStyle=orthogonalEdgeStyle;rounded=0;orthogonalLoop=1;jettySize=auto;html=1;entryX=1;entryY=0.5;entryDx=0;entryDy=0;endArrow=none;endFill=0;" parent="1" source="JwuotUyz37pWbvxtIua6-38" target="PnoXssII64kV3W4k1HJd-2" edge="1">
          <mxGeometry relative="1" as="geometry">
            <Array as="points">
              <mxPoint x="380" y="420" />
              <mxPoint x="380" y="145" />
            </Array>
          </mxGeometry>
        </mxCell>
        <mxCell id="jrGEfASwu3TX69Rrp1Gd-13" style="edgeStyle=orthogonalEdgeStyle;rounded=0;orthogonalLoop=1;jettySize=auto;html=1;entryX=1;entryY=0.5;entryDx=0;entryDy=0;endArrow=none;endFill=0;" parent="1" source="JwuotUyz37pWbvxtIua6-38" target="JwuotUyz37pWbvxtIua6-10" edge="1">
          <mxGeometry relative="1" as="geometry">
            <Array as="points">
              <mxPoint x="380" y="420" />
              <mxPoint x="380" y="65" />
            </Array>
          </mxGeometry>
        </mxCell>
        <mxCell id="JwuotUyz37pWbvxtIua6-38" value="Адмін" style="shape=umlActor;verticalLabelPosition=bottom;verticalAlign=top;html=1;outlineConnect=0;" parent="1" vertex="1">
          <mxGeometry x="420" y="390" width="30" height="60" as="geometry" />
        </mxCell>
        <mxCell id="JwuotUyz37pWbvxtIua6-40" value="Перегляд баннерів новин" style="ellipse;whiteSpace=wrap;html=1;" parent="1" vertex="1">
          <mxGeometry x="230" y="530" width="120" height="70" as="geometry" />
        </mxCell>
        <mxCell id="JwuotUyz37pWbvxtIua6-42" value="Перегляд новин" style="ellipse;whiteSpace=wrap;html=1;" parent="1" vertex="1">
          <mxGeometry x="230" y="270" width="120" height="70" as="geometry" />
        </mxCell>
        <mxCell id="JwuotUyz37pWbvxtIua6-44" value="Перегляд списку новин" style="ellipse;whiteSpace=wrap;html=1;" parent="1" vertex="1">
          <mxGeometry x="230" y="800" width="120" height="70" as="geometry" />
        </mxCell>
        <mxCell id="JwuotUyz37pWbvxtIua6-50" value="Видалення новини" style="ellipse;whiteSpace=wrap;html=1;" parent="1" vertex="1">
          <mxGeometry x="230" y="890" width="120" height="70" as="geometry" />
        </mxCell>
        <mxCell id="JwuotUyz37pWbvxtIua6-52" value="Вибір фільтру новин" style="ellipse;whiteSpace=wrap;html=1;" parent="1" vertex="1">
          <mxGeometry x="230" y="440" width="120" height="70" as="geometry" />
        </mxCell>
        <mxCell id="PnoXssII64kV3W4k1HJd-1" value="Користувач" style="shape=umlActor;verticalLabelPosition=bottom;verticalAlign=top;html=1;outlineConnect=0;" parent="1" vertex="1">
          <mxGeometry x="80" y="160" width="30" height="60" as="geometry" />
        </mxCell>
        <mxCell id="PnoXssII64kV3W4k1HJd-2" value="Реагування на новину" style="ellipse;whiteSpace=wrap;html=1;" parent="1" vertex="1">
          <mxGeometry x="230" y="110" width="120" height="70" as="geometry" />
        </mxCell>
        <mxCell id="PnoXssII64kV3W4k1HJd-3" style="edgeStyle=orthogonalEdgeStyle;rounded=0;orthogonalLoop=1;jettySize=auto;html=1;entryX=0;entryY=0.5;entryDx=0;entryDy=0;endArrow=none;endFill=0;" parent="1" source="PnoXssII64kV3W4k1HJd-1" target="PnoXssII64kV3W4k1HJd-2" edge="1">
          <mxGeometry relative="1" as="geometry" />
        </mxCell>
        <mxCell id="PnoXssII64kV3W4k1HJd-4" style="edgeStyle=orthogonalEdgeStyle;rounded=0;orthogonalLoop=1;jettySize=auto;html=1;entryX=0;entryY=0.5;entryDx=0;entryDy=0;endArrow=none;endFill=0;" parent="1" source="PnoXssII64kV3W4k1HJd-1" target="PnoXssII64kV3W4k1HJd-5" edge="1">
          <mxGeometry relative="1" as="geometry" />
        </mxCell>
        <mxCell id="PnoXssII64kV3W4k1HJd-5" value="Написання комантарю" style="ellipse;whiteSpace=wrap;html=1;" parent="1" vertex="1">
          <mxGeometry x="230" y="190" width="120" height="70" as="geometry" />
        </mxCell>
        <mxCell id="PnoXssII64kV3W4k1HJd-6" value="Репост посилання на новину до соц. мереж" style="ellipse;whiteSpace=wrap;html=1;" parent="1" vertex="1">
          <mxGeometry x="230" y="350" width="120" height="70" as="geometry" />
        </mxCell>
        <mxCell id="PnoXssII64kV3W4k1HJd-7" style="edgeStyle=orthogonalEdgeStyle;rounded=0;orthogonalLoop=1;jettySize=auto;html=1;entryX=0;entryY=0.5;entryDx=0;entryDy=0;endArrow=none;endFill=0;" parent="1" source="PnoXssII64kV3W4k1HJd-1" target="PnoXssII64kV3W4k1HJd-6" edge="1">
          <mxGeometry relative="1" as="geometry" />
        </mxCell>
      </root>
    </mxGraphModel>
  </diagram>
  <diagram id="pjwRIvxaNWzT5MnAfzzE" name="Страница 3">
    <mxGraphModel dx="1418" dy="828" grid="1" gridSize="10" guides="1" tooltips="1" connect="1" arrows="1" fold="1" page="1" pageScale="1" pageWidth="827" pageHeight="1169" math="0" shadow="0">
      <root>
        <mxCell id="0" />
        <mxCell id="1" parent="0" />
        <mxCell id="CYiGvyAhx1k-oHjF3VCG-1" style="edgeStyle=orthogonalEdgeStyle;rounded=0;orthogonalLoop=1;jettySize=auto;html=1;entryX=0;entryY=0.5;entryDx=0;entryDy=0;endArrow=none;endFill=0;" parent="1" source="CYiGvyAhx1k-oHjF3VCG-4" target="CYiGvyAhx1k-oHjF3VCG-6" edge="1">
          <mxGeometry relative="1" as="geometry" />
        </mxCell>
        <mxCell id="CYiGvyAhx1k-oHjF3VCG-2" style="edgeStyle=orthogonalEdgeStyle;rounded=0;orthogonalLoop=1;jettySize=auto;html=1;entryX=0;entryY=0.5;entryDx=0;entryDy=0;endArrow=none;endFill=0;" parent="1" source="CYiGvyAhx1k-oHjF3VCG-4" target="CYiGvyAhx1k-oHjF3VCG-21" edge="1">
          <mxGeometry relative="1" as="geometry" />
        </mxCell>
        <mxCell id="CYiGvyAhx1k-oHjF3VCG-3" style="edgeStyle=orthogonalEdgeStyle;rounded=0;orthogonalLoop=1;jettySize=auto;html=1;entryX=0;entryY=0.5;entryDx=0;entryDy=0;endArrow=none;endFill=0;" parent="1" source="CYiGvyAhx1k-oHjF3VCG-4" target="CYiGvyAhx1k-oHjF3VCG-23" edge="1">
          <mxGeometry relative="1" as="geometry" />
        </mxCell>
        <mxCell id="CYiGvyAhx1k-oHjF3VCG-4" value="Користувач" style="shape=umlActor;verticalLabelPosition=bottom;verticalAlign=top;html=1;outlineConnect=0;" parent="1" vertex="1">
          <mxGeometry x="80" y="160" width="30" height="60" as="geometry" />
        </mxCell>
        <mxCell id="CYiGvyAhx1k-oHjF3VCG-5" style="edgeStyle=orthogonalEdgeStyle;rounded=0;orthogonalLoop=1;jettySize=auto;html=1;endArrow=none;endFill=0;" parent="1" source="CYiGvyAhx1k-oHjF3VCG-6" target="wAEpZEMGU0AWy_mzfU6Q-1" edge="1">
          <mxGeometry relative="1" as="geometry">
            <mxPoint x="480" y="65" as="targetPoint" />
          </mxGeometry>
        </mxCell>
        <mxCell id="CYiGvyAhx1k-oHjF3VCG-6" value="Реєстрація" style="ellipse;whiteSpace=wrap;html=1;" parent="1" vertex="1">
          <mxGeometry x="230" y="30" width="120" height="70" as="geometry" />
        </mxCell>
        <mxCell id="CYiGvyAhx1k-oHjF3VCG-7" style="edgeStyle=orthogonalEdgeStyle;rounded=0;orthogonalLoop=1;jettySize=auto;html=1;entryX=0;entryY=0.5;entryDx=0;entryDy=0;endArrow=none;endFill=0;" parent="1" source="CYiGvyAhx1k-oHjF3VCG-9" target="CYiGvyAhx1k-oHjF3VCG-28" edge="1">
          <mxGeometry relative="1" as="geometry" />
        </mxCell>
        <mxCell id="CYiGvyAhx1k-oHjF3VCG-8" style="edgeStyle=orthogonalEdgeStyle;rounded=0;orthogonalLoop=1;jettySize=auto;html=1;entryX=0;entryY=0.5;entryDx=0;entryDy=0;endArrow=none;endFill=0;" parent="1" source="CYiGvyAhx1k-oHjF3VCG-9" target="CYiGvyAhx1k-oHjF3VCG-32" edge="1">
          <mxGeometry relative="1" as="geometry" />
        </mxCell>
        <mxCell id="CYiGvyAhx1k-oHjF3VCG-9" value="Веб-сторінка головної стрічки" style="shape=umlActor;verticalLabelPosition=bottom;verticalAlign=top;html=1;outlineConnect=0;" parent="1" vertex="1">
          <mxGeometry x="480" y="305" width="30" height="60" as="geometry" />
        </mxCell>
        <mxCell id="CYiGvyAhx1k-oHjF3VCG-10" style="edgeStyle=orthogonalEdgeStyle;rounded=0;orthogonalLoop=1;jettySize=auto;html=1;entryX=0;entryY=0.5;entryDx=0;entryDy=0;endArrow=none;endFill=0;" parent="1" source="wAEpZEMGU0AWy_mzfU6Q-1" target="CYiGvyAhx1k-oHjF3VCG-26" edge="1">
          <mxGeometry relative="1" as="geometry">
            <mxPoint x="510" y="65" as="sourcePoint" />
          </mxGeometry>
        </mxCell>
        <mxCell id="CYiGvyAhx1k-oHjF3VCG-11" style="edgeStyle=orthogonalEdgeStyle;rounded=0;orthogonalLoop=1;jettySize=auto;html=1;entryX=0;entryY=0.5;entryDx=0;entryDy=0;endArrow=none;endFill=0;" parent="1" source="CYiGvyAhx1k-oHjF3VCG-12" target="CYiGvyAhx1k-oHjF3VCG-30" edge="1">
          <mxGeometry relative="1" as="geometry" />
        </mxCell>
        <mxCell id="CYiGvyAhx1k-oHjF3VCG-12" value="Веб-сторінка логіну" style="shape=umlActor;verticalLabelPosition=bottom;verticalAlign=top;html=1;outlineConnect=0;" parent="1" vertex="1">
          <mxGeometry x="480" y="395" width="30" height="60" as="geometry" />
        </mxCell>
        <mxCell id="CYiGvyAhx1k-oHjF3VCG-13" style="edgeStyle=orthogonalEdgeStyle;rounded=0;orthogonalLoop=1;jettySize=auto;html=1;endArrow=none;endFill=0;" parent="1" source="CYiGvyAhx1k-oHjF3VCG-14" target="CYiGvyAhx1k-oHjF3VCG-12" edge="1">
          <mxGeometry relative="1" as="geometry" />
        </mxCell>
        <mxCell id="CYiGvyAhx1k-oHjF3VCG-14" value="Вхід до аккаунту" style="ellipse;whiteSpace=wrap;html=1;" parent="1" vertex="1">
          <mxGeometry x="230" y="390" width="120" height="70" as="geometry" />
        </mxCell>
        <mxCell id="CYiGvyAhx1k-oHjF3VCG-15" style="edgeStyle=orthogonalEdgeStyle;rounded=0;orthogonalLoop=1;jettySize=auto;html=1;endArrow=none;endFill=0;" parent="1" source="CYiGvyAhx1k-oHjF3VCG-16" target="CYiGvyAhx1k-oHjF3VCG-9" edge="1">
          <mxGeometry relative="1" as="geometry" />
        </mxCell>
        <mxCell id="CYiGvyAhx1k-oHjF3VCG-16" value="Створення новини" style="ellipse;whiteSpace=wrap;html=1;" parent="1" vertex="1">
          <mxGeometry x="230" y="300" width="120" height="70" as="geometry" />
        </mxCell>
        <mxCell id="CYiGvyAhx1k-oHjF3VCG-17" style="edgeStyle=orthogonalEdgeStyle;rounded=0;orthogonalLoop=1;jettySize=auto;html=1;entryX=0;entryY=0.5;entryDx=0;entryDy=0;endArrow=none;endFill=0;" parent="1" source="CYiGvyAhx1k-oHjF3VCG-19" target="CYiGvyAhx1k-oHjF3VCG-16" edge="1">
          <mxGeometry relative="1" as="geometry" />
        </mxCell>
        <mxCell id="CYiGvyAhx1k-oHjF3VCG-18" style="edgeStyle=orthogonalEdgeStyle;rounded=0;orthogonalLoop=1;jettySize=auto;html=1;entryX=0;entryY=0.5;entryDx=0;entryDy=0;endArrow=none;endFill=0;" parent="1" source="CYiGvyAhx1k-oHjF3VCG-19" target="CYiGvyAhx1k-oHjF3VCG-14" edge="1">
          <mxGeometry relative="1" as="geometry">
            <Array as="points">
              <mxPoint x="180" y="425" />
              <mxPoint x="180" y="425" />
            </Array>
          </mxGeometry>
        </mxCell>
        <mxCell id="CYiGvyAhx1k-oHjF3VCG-19" value="Автор" style="shape=umlActor;verticalLabelPosition=bottom;verticalAlign=top;html=1;outlineConnect=0;" parent="1" vertex="1">
          <mxGeometry x="80" y="395" width="30" height="60" as="geometry" />
        </mxCell>
        <mxCell id="CYiGvyAhx1k-oHjF3VCG-20" style="edgeStyle=orthogonalEdgeStyle;rounded=0;orthogonalLoop=1;jettySize=auto;html=1;endArrow=none;endFill=0;" parent="1" source="CYiGvyAhx1k-oHjF3VCG-21" target="CYiGvyAhx1k-oHjF3VCG-9" edge="1">
          <mxGeometry relative="1" as="geometry">
            <Array as="points">
              <mxPoint x="420" y="245" />
              <mxPoint x="420" y="335" />
            </Array>
          </mxGeometry>
        </mxCell>
        <mxCell id="CYiGvyAhx1k-oHjF3VCG-21" value="Перегляд баннерів новин" style="ellipse;whiteSpace=wrap;html=1;" parent="1" vertex="1">
          <mxGeometry x="230" y="210" width="120" height="70" as="geometry" />
        </mxCell>
        <mxCell id="CYiGvyAhx1k-oHjF3VCG-22" style="edgeStyle=orthogonalEdgeStyle;rounded=0;orthogonalLoop=1;jettySize=auto;html=1;endArrow=none;endFill=0;" parent="1" source="CYiGvyAhx1k-oHjF3VCG-23" target="CYiGvyAhx1k-oHjF3VCG-9" edge="1">
          <mxGeometry relative="1" as="geometry">
            <Array as="points">
              <mxPoint x="420" y="155" />
              <mxPoint x="420" y="335" />
            </Array>
          </mxGeometry>
        </mxCell>
        <mxCell id="CYiGvyAhx1k-oHjF3VCG-23" value="Вибір фільтру новин" style="ellipse;whiteSpace=wrap;html=1;" parent="1" vertex="1">
          <mxGeometry x="230" y="120" width="120" height="70" as="geometry" />
        </mxCell>
        <mxCell id="CYiGvyAhx1k-oHjF3VCG-24" value="Сервер" style="shape=umlActor;verticalLabelPosition=bottom;verticalAlign=top;html=1;outlineConnect=0;" parent="1" vertex="1">
          <mxGeometry x="810" y="125" width="30" height="60" as="geometry" />
        </mxCell>
        <mxCell id="CYiGvyAhx1k-oHjF3VCG-25" style="edgeStyle=orthogonalEdgeStyle;rounded=0;orthogonalLoop=1;jettySize=auto;html=1;endArrow=none;endFill=0;" parent="1" source="CYiGvyAhx1k-oHjF3VCG-26" target="CYiGvyAhx1k-oHjF3VCG-24" edge="1">
          <mxGeometry relative="1" as="geometry">
            <Array as="points">
              <mxPoint x="790" y="65" />
              <mxPoint x="790" y="155" />
            </Array>
          </mxGeometry>
        </mxCell>
        <mxCell id="CYiGvyAhx1k-oHjF3VCG-26" value="Створення користувача" style="ellipse;whiteSpace=wrap;html=1;" parent="1" vertex="1">
          <mxGeometry x="600" y="30" width="120" height="70" as="geometry" />
        </mxCell>
        <mxCell id="CYiGvyAhx1k-oHjF3VCG-27" style="edgeStyle=orthogonalEdgeStyle;rounded=0;orthogonalLoop=1;jettySize=auto;html=1;endArrow=none;endFill=0;exitX=1;exitY=0.5;exitDx=0;exitDy=0;" parent="1" source="CYiGvyAhx1k-oHjF3VCG-28" target="CYiGvyAhx1k-oHjF3VCG-24" edge="1">
          <mxGeometry relative="1" as="geometry">
            <Array as="points">
              <mxPoint x="790" y="245" />
              <mxPoint x="790" y="155" />
            </Array>
          </mxGeometry>
        </mxCell>
        <mxCell id="CYiGvyAhx1k-oHjF3VCG-28" value="Створення новини" style="ellipse;whiteSpace=wrap;html=1;" parent="1" vertex="1">
          <mxGeometry x="600" y="210" width="120" height="70" as="geometry" />
        </mxCell>
        <mxCell id="CYiGvyAhx1k-oHjF3VCG-29" style="edgeStyle=orthogonalEdgeStyle;rounded=0;orthogonalLoop=1;jettySize=auto;html=1;endArrow=none;endFill=0;" parent="1" source="CYiGvyAhx1k-oHjF3VCG-30" target="CYiGvyAhx1k-oHjF3VCG-24" edge="1">
          <mxGeometry relative="1" as="geometry">
            <Array as="points">
              <mxPoint x="790" y="425" />
              <mxPoint x="790" y="155" />
            </Array>
          </mxGeometry>
        </mxCell>
        <mxCell id="CYiGvyAhx1k-oHjF3VCG-30" value="Авторизація" style="ellipse;whiteSpace=wrap;html=1;" parent="1" vertex="1">
          <mxGeometry x="600" y="390" width="120" height="70" as="geometry" />
        </mxCell>
        <mxCell id="CYiGvyAhx1k-oHjF3VCG-31" style="edgeStyle=orthogonalEdgeStyle;rounded=0;orthogonalLoop=1;jettySize=auto;html=1;endArrow=none;endFill=0;" parent="1" source="CYiGvyAhx1k-oHjF3VCG-32" target="CYiGvyAhx1k-oHjF3VCG-24" edge="1">
          <mxGeometry relative="1" as="geometry">
            <Array as="points">
              <mxPoint x="790" y="335" />
              <mxPoint x="790" y="155" />
            </Array>
          </mxGeometry>
        </mxCell>
        <mxCell id="CYiGvyAhx1k-oHjF3VCG-32" value="Отримання даних щодо баннерів новин" style="ellipse;whiteSpace=wrap;html=1;" parent="1" vertex="1">
          <mxGeometry x="600" y="300" width="120" height="70" as="geometry" />
        </mxCell>
        <mxCell id="wAEpZEMGU0AWy_mzfU6Q-1" value="Веб-сторінка реєстрації" style="shape=umlActor;verticalLabelPosition=bottom;verticalAlign=top;html=1;outlineConnect=0;" parent="1" vertex="1">
          <mxGeometry x="480" y="35" width="30" height="60" as="geometry" />
        </mxCell>
      </root>
    </mxGraphModel>
  </diagram>
  <diagram id="8GD01Nmzar3S3QhMd8Ao" name="Страница 4">
    <mxGraphModel dx="1418" dy="828" grid="1" gridSize="10" guides="1" tooltips="1" connect="1" arrows="1" fold="1" page="1" pageScale="1" pageWidth="827" pageHeight="1169" math="0" shadow="0">
      <root>
        <mxCell id="0" />
        <mxCell id="1" parent="0" />
        <mxCell id="v5Y5Kg1193a-AQZ1EzQA-1" style="edgeStyle=orthogonalEdgeStyle;rounded=0;orthogonalLoop=1;jettySize=auto;html=1;entryX=0;entryY=0.5;entryDx=0;entryDy=0;endArrow=none;endFill=0;" parent="1" source="v5Y5Kg1193a-AQZ1EzQA-33" target="v5Y5Kg1193a-AQZ1EzQA-12" edge="1">
          <mxGeometry relative="1" as="geometry">
            <mxPoint x="110" y="190" as="sourcePoint" />
            <Array as="points">
              <mxPoint x="170" y="260" />
              <mxPoint x="170" y="305" />
            </Array>
          </mxGeometry>
        </mxCell>
        <mxCell id="v5Y5Kg1193a-AQZ1EzQA-9" style="edgeStyle=orthogonalEdgeStyle;rounded=0;orthogonalLoop=1;jettySize=auto;html=1;entryX=0;entryY=0.5;entryDx=0;entryDy=0;endArrow=none;endFill=0;" parent="1" source="v5Y5Kg1193a-AQZ1EzQA-11" target="v5Y5Kg1193a-AQZ1EzQA-14" edge="1">
          <mxGeometry relative="1" as="geometry">
            <Array as="points">
              <mxPoint x="460" y="260" />
              <mxPoint x="460" y="465" />
            </Array>
          </mxGeometry>
        </mxCell>
        <mxCell id="v5Y5Kg1193a-AQZ1EzQA-10" style="edgeStyle=orthogonalEdgeStyle;rounded=0;orthogonalLoop=1;jettySize=auto;html=1;entryX=0;entryY=0.5;entryDx=0;entryDy=0;endArrow=none;endFill=0;" parent="1" source="v5Y5Kg1193a-AQZ1EzQA-11" target="v5Y5Kg1193a-AQZ1EzQA-20" edge="1">
          <mxGeometry relative="1" as="geometry">
            <Array as="points">
              <mxPoint x="460" y="260" />
              <mxPoint x="460" y="550" />
              <mxPoint x="370" y="550" />
            </Array>
          </mxGeometry>
        </mxCell>
        <mxCell id="ix-wqq4q-aHULNTZXZj0-2" style="edgeStyle=orthogonalEdgeStyle;rounded=0;orthogonalLoop=1;jettySize=auto;html=1;entryX=1;entryY=0.5;entryDx=0;entryDy=0;endArrow=none;endFill=0;" parent="1" source="v5Y5Kg1193a-AQZ1EzQA-11" target="v5Y5Kg1193a-AQZ1EzQA-38" edge="1">
          <mxGeometry relative="1" as="geometry" />
        </mxCell>
        <mxCell id="ix-wqq4q-aHULNTZXZj0-3" style="edgeStyle=orthogonalEdgeStyle;rounded=0;orthogonalLoop=1;jettySize=auto;html=1;entryX=1;entryY=0.5;entryDx=0;entryDy=0;endArrow=none;endFill=0;" parent="1" source="v5Y5Kg1193a-AQZ1EzQA-11" target="v5Y5Kg1193a-AQZ1EzQA-12" edge="1">
          <mxGeometry relative="1" as="geometry" />
        </mxCell>
        <mxCell id="ix-wqq4q-aHULNTZXZj0-5" style="edgeStyle=orthogonalEdgeStyle;rounded=0;orthogonalLoop=1;jettySize=auto;html=1;endArrow=none;endFill=0;" parent="1" source="v5Y5Kg1193a-AQZ1EzQA-11" target="v5Y5Kg1193a-AQZ1EzQA-37" edge="1">
          <mxGeometry relative="1" as="geometry" />
        </mxCell>
        <mxCell id="ix-wqq4q-aHULNTZXZj0-6" style="edgeStyle=orthogonalEdgeStyle;rounded=0;orthogonalLoop=1;jettySize=auto;html=1;entryX=1;entryY=0.5;entryDx=0;entryDy=0;endArrow=none;endFill=0;" parent="1" source="v5Y5Kg1193a-AQZ1EzQA-11" target="v5Y5Kg1193a-AQZ1EzQA-34" edge="1">
          <mxGeometry relative="1" as="geometry" />
        </mxCell>
        <mxCell id="v5Y5Kg1193a-AQZ1EzQA-11" value="Адмін" style="shape=umlActor;verticalLabelPosition=bottom;verticalAlign=top;html=1;outlineConnect=0;" parent="1" vertex="1">
          <mxGeometry x="490" y="230" width="30" height="60" as="geometry" />
        </mxCell>
        <mxCell id="v5Y5Kg1193a-AQZ1EzQA-12" value="Перегляд новин" style="ellipse;whiteSpace=wrap;html=1;" parent="1" vertex="1">
          <mxGeometry x="230" y="270" width="120" height="70" as="geometry" />
        </mxCell>
        <mxCell id="v5Y5Kg1193a-AQZ1EzQA-14" value="Перегляд списку новин" style="ellipse;whiteSpace=wrap;html=1;" parent="1" vertex="1">
          <mxGeometry x="230" y="430" width="120" height="70" as="geometry" />
        </mxCell>
        <mxCell id="v5Y5Kg1193a-AQZ1EzQA-20" value="Видалення новини" style="ellipse;whiteSpace=wrap;html=1;" parent="1" vertex="1">
          <mxGeometry x="230" y="514.5" width="120" height="70" as="geometry" />
        </mxCell>
        <mxCell id="v5Y5Kg1193a-AQZ1EzQA-33" value="Користувач" style="shape=umlActor;verticalLabelPosition=bottom;verticalAlign=top;html=1;outlineConnect=0;" parent="1" vertex="1">
          <mxGeometry x="80" y="230" width="30" height="60" as="geometry" />
        </mxCell>
        <mxCell id="v5Y5Kg1193a-AQZ1EzQA-34" value="Реагування на новину" style="ellipse;whiteSpace=wrap;html=1;" parent="1" vertex="1">
          <mxGeometry x="230" y="110" width="120" height="70" as="geometry" />
        </mxCell>
        <mxCell id="v5Y5Kg1193a-AQZ1EzQA-35" style="edgeStyle=orthogonalEdgeStyle;rounded=0;orthogonalLoop=1;jettySize=auto;html=1;entryX=0;entryY=0.5;entryDx=0;entryDy=0;endArrow=none;endFill=0;" parent="1" source="v5Y5Kg1193a-AQZ1EzQA-33" target="v5Y5Kg1193a-AQZ1EzQA-34" edge="1">
          <mxGeometry relative="1" as="geometry" />
        </mxCell>
        <mxCell id="v5Y5Kg1193a-AQZ1EzQA-36" style="edgeStyle=orthogonalEdgeStyle;rounded=0;orthogonalLoop=1;jettySize=auto;html=1;entryX=0;entryY=0.5;entryDx=0;entryDy=0;endArrow=none;endFill=0;" parent="1" source="v5Y5Kg1193a-AQZ1EzQA-33" target="v5Y5Kg1193a-AQZ1EzQA-37" edge="1">
          <mxGeometry relative="1" as="geometry" />
        </mxCell>
        <mxCell id="v5Y5Kg1193a-AQZ1EzQA-37" value="Написання комантарю" style="ellipse;whiteSpace=wrap;html=1;" parent="1" vertex="1">
          <mxGeometry x="230" y="190" width="120" height="70" as="geometry" />
        </mxCell>
        <mxCell id="v5Y5Kg1193a-AQZ1EzQA-38" value="Репост посилання на новину до соц. мереж" style="ellipse;whiteSpace=wrap;html=1;" parent="1" vertex="1">
          <mxGeometry x="230" y="350" width="120" height="70" as="geometry" />
        </mxCell>
        <mxCell id="v5Y5Kg1193a-AQZ1EzQA-39" style="edgeStyle=orthogonalEdgeStyle;rounded=0;orthogonalLoop=1;jettySize=auto;html=1;entryX=0;entryY=0.5;entryDx=0;entryDy=0;endArrow=none;endFill=0;" parent="1" source="v5Y5Kg1193a-AQZ1EzQA-33" target="v5Y5Kg1193a-AQZ1EzQA-38" edge="1">
          <mxGeometry relative="1" as="geometry" />
        </mxCell>
      </root>
    </mxGraphModel>
  </diagram>
  <diagram id="_RkzzZbqACvf4ono-DAd" name="Страница 5">
    <mxGraphModel dx="1434" dy="844" grid="1" gridSize="10" guides="1" tooltips="1" connect="1" arrows="1" fold="1" page="1" pageScale="1" pageWidth="827" pageHeight="1169" math="0" shadow="0">
      <root>
        <mxCell id="0" />
        <mxCell id="1" parent="0" />
        <mxCell id="pDt8JMRhqxrCkGCLQyXo-1" value="users" style="shape=table;startSize=30;container=1;collapsible=1;childLayout=tableLayout;fixedRows=1;rowLines=0;fontStyle=1;align=center;resizeLast=1;html=1;" vertex="1" parent="1">
          <mxGeometry x="550" y="70" width="180" height="240" as="geometry" />
        </mxCell>
        <mxCell id="pDt8JMRhqxrCkGCLQyXo-2" value="" style="shape=tableRow;horizontal=0;startSize=0;swimlaneHead=0;swimlaneBody=0;fillColor=none;collapsible=0;dropTarget=0;points=[[0,0.5],[1,0.5]];portConstraint=eastwest;top=0;left=0;right=0;bottom=1;" vertex="1" parent="pDt8JMRhqxrCkGCLQyXo-1">
          <mxGeometry y="30" width="180" height="30" as="geometry" />
        </mxCell>
        <mxCell id="pDt8JMRhqxrCkGCLQyXo-3" value="PK" style="shape=partialRectangle;connectable=0;fillColor=none;top=0;left=0;bottom=0;right=0;fontStyle=1;overflow=hidden;whiteSpace=wrap;html=1;" vertex="1" parent="pDt8JMRhqxrCkGCLQyXo-2">
          <mxGeometry width="30" height="30" as="geometry">
            <mxRectangle width="30" height="30" as="alternateBounds" />
          </mxGeometry>
        </mxCell>
        <mxCell id="pDt8JMRhqxrCkGCLQyXo-4" value="id: int" style="shape=partialRectangle;connectable=0;fillColor=none;top=0;left=0;bottom=0;right=0;align=left;spacingLeft=6;fontStyle=5;overflow=hidden;whiteSpace=wrap;html=1;" vertex="1" parent="pDt8JMRhqxrCkGCLQyXo-2">
          <mxGeometry x="30" width="150" height="30" as="geometry">
            <mxRectangle width="150" height="30" as="alternateBounds" />
          </mxGeometry>
        </mxCell>
        <mxCell id="pDt8JMRhqxrCkGCLQyXo-5" value="" style="shape=tableRow;horizontal=0;startSize=0;swimlaneHead=0;swimlaneBody=0;fillColor=none;collapsible=0;dropTarget=0;points=[[0,0.5],[1,0.5]];portConstraint=eastwest;top=0;left=0;right=0;bottom=0;" vertex="1" parent="pDt8JMRhqxrCkGCLQyXo-1">
          <mxGeometry y="60" width="180" height="30" as="geometry" />
        </mxCell>
        <mxCell id="pDt8JMRhqxrCkGCLQyXo-6" value="" style="shape=partialRectangle;connectable=0;fillColor=none;top=0;left=0;bottom=0;right=0;editable=1;overflow=hidden;whiteSpace=wrap;html=1;" vertex="1" parent="pDt8JMRhqxrCkGCLQyXo-5">
          <mxGeometry width="30" height="30" as="geometry">
            <mxRectangle width="30" height="30" as="alternateBounds" />
          </mxGeometry>
        </mxCell>
        <mxCell id="pDt8JMRhqxrCkGCLQyXo-7" value="email : varchar 32" style="shape=partialRectangle;connectable=0;fillColor=none;top=0;left=0;bottom=0;right=0;align=left;spacingLeft=6;overflow=hidden;whiteSpace=wrap;html=1;" vertex="1" parent="pDt8JMRhqxrCkGCLQyXo-5">
          <mxGeometry x="30" width="150" height="30" as="geometry">
            <mxRectangle width="150" height="30" as="alternateBounds" />
          </mxGeometry>
        </mxCell>
        <mxCell id="pDt8JMRhqxrCkGCLQyXo-11" value="" style="shape=tableRow;horizontal=0;startSize=0;swimlaneHead=0;swimlaneBody=0;fillColor=none;collapsible=0;dropTarget=0;points=[[0,0.5],[1,0.5]];portConstraint=eastwest;top=0;left=0;right=0;bottom=0;" vertex="1" parent="pDt8JMRhqxrCkGCLQyXo-1">
          <mxGeometry y="90" width="180" height="30" as="geometry" />
        </mxCell>
        <mxCell id="pDt8JMRhqxrCkGCLQyXo-12" value="" style="shape=partialRectangle;connectable=0;fillColor=none;top=0;left=0;bottom=0;right=0;editable=1;overflow=hidden;whiteSpace=wrap;html=1;" vertex="1" parent="pDt8JMRhqxrCkGCLQyXo-11">
          <mxGeometry width="30" height="30" as="geometry">
            <mxRectangle width="30" height="30" as="alternateBounds" />
          </mxGeometry>
        </mxCell>
        <mxCell id="pDt8JMRhqxrCkGCLQyXo-13" value="username: varchar 16" style="shape=partialRectangle;connectable=0;fillColor=none;top=0;left=0;bottom=0;right=0;align=left;spacingLeft=6;overflow=hidden;whiteSpace=wrap;html=1;" vertex="1" parent="pDt8JMRhqxrCkGCLQyXo-11">
          <mxGeometry x="30" width="150" height="30" as="geometry">
            <mxRectangle width="150" height="30" as="alternateBounds" />
          </mxGeometry>
        </mxCell>
        <mxCell id="pDt8JMRhqxrCkGCLQyXo-49" style="shape=tableRow;horizontal=0;startSize=0;swimlaneHead=0;swimlaneBody=0;fillColor=none;collapsible=0;dropTarget=0;points=[[0,0.5],[1,0.5]];portConstraint=eastwest;top=0;left=0;right=0;bottom=0;" vertex="1" parent="pDt8JMRhqxrCkGCLQyXo-1">
          <mxGeometry y="120" width="180" height="30" as="geometry" />
        </mxCell>
        <mxCell id="pDt8JMRhqxrCkGCLQyXo-50" style="shape=partialRectangle;connectable=0;fillColor=none;top=0;left=0;bottom=0;right=0;editable=1;overflow=hidden;whiteSpace=wrap;html=1;" vertex="1" parent="pDt8JMRhqxrCkGCLQyXo-49">
          <mxGeometry width="30" height="30" as="geometry">
            <mxRectangle width="30" height="30" as="alternateBounds" />
          </mxGeometry>
        </mxCell>
        <mxCell id="pDt8JMRhqxrCkGCLQyXo-51" value="password : varchar 16" style="shape=partialRectangle;connectable=0;fillColor=none;top=0;left=0;bottom=0;right=0;align=left;spacingLeft=6;overflow=hidden;whiteSpace=wrap;html=1;" vertex="1" parent="pDt8JMRhqxrCkGCLQyXo-49">
          <mxGeometry x="30" width="150" height="30" as="geometry">
            <mxRectangle width="150" height="30" as="alternateBounds" />
          </mxGeometry>
        </mxCell>
        <mxCell id="pDt8JMRhqxrCkGCLQyXo-17" style="shape=tableRow;horizontal=0;startSize=0;swimlaneHead=0;swimlaneBody=0;fillColor=none;collapsible=0;dropTarget=0;points=[[0,0.5],[1,0.5]];portConstraint=eastwest;top=0;left=0;right=0;bottom=0;" vertex="1" parent="pDt8JMRhqxrCkGCLQyXo-1">
          <mxGeometry y="150" width="180" height="30" as="geometry" />
        </mxCell>
        <mxCell id="pDt8JMRhqxrCkGCLQyXo-18" style="shape=partialRectangle;connectable=0;fillColor=none;top=0;left=0;bottom=0;right=0;editable=1;overflow=hidden;whiteSpace=wrap;html=1;" vertex="1" parent="pDt8JMRhqxrCkGCLQyXo-17">
          <mxGeometry width="30" height="30" as="geometry">
            <mxRectangle width="30" height="30" as="alternateBounds" />
          </mxGeometry>
        </mxCell>
        <mxCell id="pDt8JMRhqxrCkGCLQyXo-19" value="rating : int&amp;nbsp;" style="shape=partialRectangle;connectable=0;fillColor=none;top=0;left=0;bottom=0;right=0;align=left;spacingLeft=6;overflow=hidden;whiteSpace=wrap;html=1;" vertex="1" parent="pDt8JMRhqxrCkGCLQyXo-17">
          <mxGeometry x="30" width="150" height="30" as="geometry">
            <mxRectangle width="150" height="30" as="alternateBounds" />
          </mxGeometry>
        </mxCell>
        <mxCell id="pDt8JMRhqxrCkGCLQyXo-14" style="shape=tableRow;horizontal=0;startSize=0;swimlaneHead=0;swimlaneBody=0;fillColor=none;collapsible=0;dropTarget=0;points=[[0,0.5],[1,0.5]];portConstraint=eastwest;top=0;left=0;right=0;bottom=0;" vertex="1" parent="pDt8JMRhqxrCkGCLQyXo-1">
          <mxGeometry y="180" width="180" height="30" as="geometry" />
        </mxCell>
        <mxCell id="pDt8JMRhqxrCkGCLQyXo-15" style="shape=partialRectangle;connectable=0;fillColor=none;top=0;left=0;bottom=0;right=0;editable=1;overflow=hidden;whiteSpace=wrap;html=1;" vertex="1" parent="pDt8JMRhqxrCkGCLQyXo-14">
          <mxGeometry width="30" height="30" as="geometry">
            <mxRectangle width="30" height="30" as="alternateBounds" />
          </mxGeometry>
        </mxCell>
        <mxCell id="pDt8JMRhqxrCkGCLQyXo-16" value="isBanned : bool" style="shape=partialRectangle;connectable=0;fillColor=none;top=0;left=0;bottom=0;right=0;align=left;spacingLeft=6;overflow=hidden;whiteSpace=wrap;html=1;" vertex="1" parent="pDt8JMRhqxrCkGCLQyXo-14">
          <mxGeometry x="30" width="150" height="30" as="geometry">
            <mxRectangle width="150" height="30" as="alternateBounds" />
          </mxGeometry>
        </mxCell>
        <mxCell id="pDt8JMRhqxrCkGCLQyXo-127" style="shape=tableRow;horizontal=0;startSize=0;swimlaneHead=0;swimlaneBody=0;fillColor=none;collapsible=0;dropTarget=0;points=[[0,0.5],[1,0.5]];portConstraint=eastwest;top=0;left=0;right=0;bottom=0;" vertex="1" parent="pDt8JMRhqxrCkGCLQyXo-1">
          <mxGeometry y="210" width="180" height="30" as="geometry" />
        </mxCell>
        <mxCell id="pDt8JMRhqxrCkGCLQyXo-128" style="shape=partialRectangle;connectable=0;fillColor=none;top=0;left=0;bottom=0;right=0;editable=1;overflow=hidden;whiteSpace=wrap;html=1;" vertex="1" parent="pDt8JMRhqxrCkGCLQyXo-127">
          <mxGeometry width="30" height="30" as="geometry">
            <mxRectangle width="30" height="30" as="alternateBounds" />
          </mxGeometry>
        </mxCell>
        <mxCell id="pDt8JMRhqxrCkGCLQyXo-129" value="isAdmin : bool" style="shape=partialRectangle;connectable=0;fillColor=none;top=0;left=0;bottom=0;right=0;align=left;spacingLeft=6;overflow=hidden;whiteSpace=wrap;html=1;" vertex="1" parent="pDt8JMRhqxrCkGCLQyXo-127">
          <mxGeometry x="30" width="150" height="30" as="geometry">
            <mxRectangle width="150" height="30" as="alternateBounds" />
          </mxGeometry>
        </mxCell>
        <mxCell id="pDt8JMRhqxrCkGCLQyXo-20" value="news" style="shape=table;startSize=30;container=1;collapsible=1;childLayout=tableLayout;fixedRows=1;rowLines=0;fontStyle=1;align=center;resizeLast=1;html=1;" vertex="1" parent="1">
          <mxGeometry x="330" y="70" width="180" height="210" as="geometry" />
        </mxCell>
        <mxCell id="pDt8JMRhqxrCkGCLQyXo-21" value="" style="shape=tableRow;horizontal=0;startSize=0;swimlaneHead=0;swimlaneBody=0;fillColor=none;collapsible=0;dropTarget=0;points=[[0,0.5],[1,0.5]];portConstraint=eastwest;top=0;left=0;right=0;bottom=1;" vertex="1" parent="pDt8JMRhqxrCkGCLQyXo-20">
          <mxGeometry y="30" width="180" height="30" as="geometry" />
        </mxCell>
        <mxCell id="pDt8JMRhqxrCkGCLQyXo-22" value="PK" style="shape=partialRectangle;connectable=0;fillColor=none;top=0;left=0;bottom=0;right=0;fontStyle=1;overflow=hidden;whiteSpace=wrap;html=1;" vertex="1" parent="pDt8JMRhqxrCkGCLQyXo-21">
          <mxGeometry width="30" height="30" as="geometry">
            <mxRectangle width="30" height="30" as="alternateBounds" />
          </mxGeometry>
        </mxCell>
        <mxCell id="pDt8JMRhqxrCkGCLQyXo-23" value="id: int" style="shape=partialRectangle;connectable=0;fillColor=none;top=0;left=0;bottom=0;right=0;align=left;spacingLeft=6;fontStyle=5;overflow=hidden;whiteSpace=wrap;html=1;" vertex="1" parent="pDt8JMRhqxrCkGCLQyXo-21">
          <mxGeometry x="30" width="150" height="30" as="geometry">
            <mxRectangle width="150" height="30" as="alternateBounds" />
          </mxGeometry>
        </mxCell>
        <mxCell id="pDt8JMRhqxrCkGCLQyXo-24" value="" style="shape=tableRow;horizontal=0;startSize=0;swimlaneHead=0;swimlaneBody=0;fillColor=none;collapsible=0;dropTarget=0;points=[[0,0.5],[1,0.5]];portConstraint=eastwest;top=0;left=0;right=0;bottom=0;" vertex="1" parent="pDt8JMRhqxrCkGCLQyXo-20">
          <mxGeometry y="60" width="180" height="30" as="geometry" />
        </mxCell>
        <mxCell id="pDt8JMRhqxrCkGCLQyXo-25" value="" style="shape=partialRectangle;connectable=0;fillColor=none;top=0;left=0;bottom=0;right=0;editable=1;overflow=hidden;whiteSpace=wrap;html=1;" vertex="1" parent="pDt8JMRhqxrCkGCLQyXo-24">
          <mxGeometry width="30" height="30" as="geometry">
            <mxRectangle width="30" height="30" as="alternateBounds" />
          </mxGeometry>
        </mxCell>
        <mxCell id="pDt8JMRhqxrCkGCLQyXo-26" value="title : varchar 32" style="shape=partialRectangle;connectable=0;fillColor=none;top=0;left=0;bottom=0;right=0;align=left;spacingLeft=6;overflow=hidden;whiteSpace=wrap;html=1;" vertex="1" parent="pDt8JMRhqxrCkGCLQyXo-24">
          <mxGeometry x="30" width="150" height="30" as="geometry">
            <mxRectangle width="150" height="30" as="alternateBounds" />
          </mxGeometry>
        </mxCell>
        <mxCell id="pDt8JMRhqxrCkGCLQyXo-27" value="" style="shape=tableRow;horizontal=0;startSize=0;swimlaneHead=0;swimlaneBody=0;fillColor=none;collapsible=0;dropTarget=0;points=[[0,0.5],[1,0.5]];portConstraint=eastwest;top=0;left=0;right=0;bottom=0;" vertex="1" parent="pDt8JMRhqxrCkGCLQyXo-20">
          <mxGeometry y="90" width="180" height="30" as="geometry" />
        </mxCell>
        <mxCell id="pDt8JMRhqxrCkGCLQyXo-28" value="" style="shape=partialRectangle;connectable=0;fillColor=none;top=0;left=0;bottom=0;right=0;editable=1;overflow=hidden;whiteSpace=wrap;html=1;" vertex="1" parent="pDt8JMRhqxrCkGCLQyXo-27">
          <mxGeometry width="30" height="30" as="geometry">
            <mxRectangle width="30" height="30" as="alternateBounds" />
          </mxGeometry>
        </mxCell>
        <mxCell id="pDt8JMRhqxrCkGCLQyXo-29" value="small_desc : varchar 256" style="shape=partialRectangle;connectable=0;fillColor=none;top=0;left=0;bottom=0;right=0;align=left;spacingLeft=6;overflow=hidden;whiteSpace=wrap;html=1;" vertex="1" parent="pDt8JMRhqxrCkGCLQyXo-27">
          <mxGeometry x="30" width="150" height="30" as="geometry">
            <mxRectangle width="150" height="30" as="alternateBounds" />
          </mxGeometry>
        </mxCell>
        <mxCell id="pDt8JMRhqxrCkGCLQyXo-30" style="shape=tableRow;horizontal=0;startSize=0;swimlaneHead=0;swimlaneBody=0;fillColor=none;collapsible=0;dropTarget=0;points=[[0,0.5],[1,0.5]];portConstraint=eastwest;top=0;left=0;right=0;bottom=0;" vertex="1" parent="pDt8JMRhqxrCkGCLQyXo-20">
          <mxGeometry y="120" width="180" height="30" as="geometry" />
        </mxCell>
        <mxCell id="pDt8JMRhqxrCkGCLQyXo-31" value="FK" style="shape=partialRectangle;connectable=0;fillColor=none;top=0;left=0;bottom=0;right=0;editable=1;overflow=hidden;whiteSpace=wrap;html=1;" vertex="1" parent="pDt8JMRhqxrCkGCLQyXo-30">
          <mxGeometry width="30" height="30" as="geometry">
            <mxRectangle width="30" height="30" as="alternateBounds" />
          </mxGeometry>
        </mxCell>
        <mxCell id="pDt8JMRhqxrCkGCLQyXo-32" value="main_image : int" style="shape=partialRectangle;connectable=0;fillColor=none;top=0;left=0;bottom=0;right=0;align=left;spacingLeft=6;overflow=hidden;whiteSpace=wrap;html=1;" vertex="1" parent="pDt8JMRhqxrCkGCLQyXo-30">
          <mxGeometry x="30" width="150" height="30" as="geometry">
            <mxRectangle width="150" height="30" as="alternateBounds" />
          </mxGeometry>
        </mxCell>
        <mxCell id="pDt8JMRhqxrCkGCLQyXo-52" style="shape=tableRow;horizontal=0;startSize=0;swimlaneHead=0;swimlaneBody=0;fillColor=none;collapsible=0;dropTarget=0;points=[[0,0.5],[1,0.5]];portConstraint=eastwest;top=0;left=0;right=0;bottom=0;" vertex="1" parent="pDt8JMRhqxrCkGCLQyXo-20">
          <mxGeometry y="150" width="180" height="30" as="geometry" />
        </mxCell>
        <mxCell id="pDt8JMRhqxrCkGCLQyXo-53" value="FK" style="shape=partialRectangle;connectable=0;fillColor=none;top=0;left=0;bottom=0;right=0;editable=1;overflow=hidden;whiteSpace=wrap;html=1;" vertex="1" parent="pDt8JMRhqxrCkGCLQyXo-52">
          <mxGeometry width="30" height="30" as="geometry">
            <mxRectangle width="30" height="30" as="alternateBounds" />
          </mxGeometry>
        </mxCell>
        <mxCell id="pDt8JMRhqxrCkGCLQyXo-54" value="author: int" style="shape=partialRectangle;connectable=0;fillColor=none;top=0;left=0;bottom=0;right=0;align=left;spacingLeft=6;overflow=hidden;whiteSpace=wrap;html=1;" vertex="1" parent="pDt8JMRhqxrCkGCLQyXo-52">
          <mxGeometry x="30" width="150" height="30" as="geometry">
            <mxRectangle width="150" height="30" as="alternateBounds" />
          </mxGeometry>
        </mxCell>
        <mxCell id="pDt8JMRhqxrCkGCLQyXo-106" style="shape=tableRow;horizontal=0;startSize=0;swimlaneHead=0;swimlaneBody=0;fillColor=none;collapsible=0;dropTarget=0;points=[[0,0.5],[1,0.5]];portConstraint=eastwest;top=0;left=0;right=0;bottom=0;" vertex="1" parent="pDt8JMRhqxrCkGCLQyXo-20">
          <mxGeometry y="180" width="180" height="30" as="geometry" />
        </mxCell>
        <mxCell id="pDt8JMRhqxrCkGCLQyXo-107" style="shape=partialRectangle;connectable=0;fillColor=none;top=0;left=0;bottom=0;right=0;editable=1;overflow=hidden;whiteSpace=wrap;html=1;" vertex="1" parent="pDt8JMRhqxrCkGCLQyXo-106">
          <mxGeometry width="30" height="30" as="geometry">
            <mxRectangle width="30" height="30" as="alternateBounds" />
          </mxGeometry>
        </mxCell>
        <mxCell id="pDt8JMRhqxrCkGCLQyXo-108" value="news_content : varchar&amp;nbsp;16300" style="shape=partialRectangle;connectable=0;fillColor=none;top=0;left=0;bottom=0;right=0;align=left;spacingLeft=6;overflow=hidden;whiteSpace=wrap;html=1;" vertex="1" parent="pDt8JMRhqxrCkGCLQyXo-106">
          <mxGeometry x="30" width="150" height="30" as="geometry">
            <mxRectangle width="150" height="30" as="alternateBounds" />
          </mxGeometry>
        </mxCell>
        <mxCell id="pDt8JMRhqxrCkGCLQyXo-36" value="images" style="shape=table;startSize=30;container=1;collapsible=1;childLayout=tableLayout;fixedRows=1;rowLines=0;fontStyle=1;align=center;resizeLast=1;html=1;" vertex="1" parent="1">
          <mxGeometry x="50" y="330" width="180" height="90" as="geometry" />
        </mxCell>
        <mxCell id="pDt8JMRhqxrCkGCLQyXo-37" value="" style="shape=tableRow;horizontal=0;startSize=0;swimlaneHead=0;swimlaneBody=0;fillColor=none;collapsible=0;dropTarget=0;points=[[0,0.5],[1,0.5]];portConstraint=eastwest;top=0;left=0;right=0;bottom=1;" vertex="1" parent="pDt8JMRhqxrCkGCLQyXo-36">
          <mxGeometry y="30" width="180" height="30" as="geometry" />
        </mxCell>
        <mxCell id="pDt8JMRhqxrCkGCLQyXo-38" value="PK" style="shape=partialRectangle;connectable=0;fillColor=none;top=0;left=0;bottom=0;right=0;fontStyle=1;overflow=hidden;whiteSpace=wrap;html=1;" vertex="1" parent="pDt8JMRhqxrCkGCLQyXo-37">
          <mxGeometry width="30" height="30" as="geometry">
            <mxRectangle width="30" height="30" as="alternateBounds" />
          </mxGeometry>
        </mxCell>
        <mxCell id="pDt8JMRhqxrCkGCLQyXo-39" value="id: int" style="shape=partialRectangle;connectable=0;fillColor=none;top=0;left=0;bottom=0;right=0;align=left;spacingLeft=6;fontStyle=5;overflow=hidden;whiteSpace=wrap;html=1;" vertex="1" parent="pDt8JMRhqxrCkGCLQyXo-37">
          <mxGeometry x="30" width="150" height="30" as="geometry">
            <mxRectangle width="150" height="30" as="alternateBounds" />
          </mxGeometry>
        </mxCell>
        <mxCell id="pDt8JMRhqxrCkGCLQyXo-40" value="" style="shape=tableRow;horizontal=0;startSize=0;swimlaneHead=0;swimlaneBody=0;fillColor=none;collapsible=0;dropTarget=0;points=[[0,0.5],[1,0.5]];portConstraint=eastwest;top=0;left=0;right=0;bottom=0;" vertex="1" parent="pDt8JMRhqxrCkGCLQyXo-36">
          <mxGeometry y="60" width="180" height="30" as="geometry" />
        </mxCell>
        <mxCell id="pDt8JMRhqxrCkGCLQyXo-41" value="" style="shape=partialRectangle;connectable=0;fillColor=none;top=0;left=0;bottom=0;right=0;editable=1;overflow=hidden;whiteSpace=wrap;html=1;" vertex="1" parent="pDt8JMRhqxrCkGCLQyXo-40">
          <mxGeometry width="30" height="30" as="geometry">
            <mxRectangle width="30" height="30" as="alternateBounds" />
          </mxGeometry>
        </mxCell>
        <mxCell id="pDt8JMRhqxrCkGCLQyXo-42" value="image_href : varchar 256" style="shape=partialRectangle;connectable=0;fillColor=none;top=0;left=0;bottom=0;right=0;align=left;spacingLeft=6;overflow=hidden;whiteSpace=wrap;html=1;" vertex="1" parent="pDt8JMRhqxrCkGCLQyXo-40">
          <mxGeometry x="30" width="150" height="30" as="geometry">
            <mxRectangle width="150" height="30" as="alternateBounds" />
          </mxGeometry>
        </mxCell>
        <mxCell id="pDt8JMRhqxrCkGCLQyXo-126" style="edgeStyle=orthogonalEdgeStyle;rounded=0;orthogonalLoop=1;jettySize=auto;html=1;entryX=0;entryY=0.5;entryDx=0;entryDy=0;endArrow=ERone;endFill=0;startArrow=ERoneToMany;startFill=0;" edge="1" parent="1" source="pDt8JMRhqxrCkGCLQyXo-122" target="pDt8JMRhqxrCkGCLQyXo-113">
          <mxGeometry relative="1" as="geometry" />
        </mxCell>
        <mxCell id="pDt8JMRhqxrCkGCLQyXo-55" style="edgeStyle=orthogonalEdgeStyle;rounded=0;orthogonalLoop=1;jettySize=auto;html=1;entryX=0;entryY=0.5;entryDx=0;entryDy=0;endArrow=ERone;endFill=0;startArrow=ERoneToMany;startFill=0;" edge="1" parent="1" source="pDt8JMRhqxrCkGCLQyXo-52" target="pDt8JMRhqxrCkGCLQyXo-2">
          <mxGeometry relative="1" as="geometry" />
        </mxCell>
        <mxCell id="pDt8JMRhqxrCkGCLQyXo-56" style="edgeStyle=orthogonalEdgeStyle;rounded=0;orthogonalLoop=1;jettySize=auto;html=1;entryX=1;entryY=0.5;entryDx=0;entryDy=0;endArrow=ERone;endFill=0;exitX=0;exitY=0.5;exitDx=0;exitDy=0;startArrow=ERone;startFill=0;" edge="1" parent="1" source="pDt8JMRhqxrCkGCLQyXo-30" target="pDt8JMRhqxrCkGCLQyXo-37">
          <mxGeometry relative="1" as="geometry">
            <Array as="points">
              <mxPoint x="310" y="205" />
              <mxPoint x="310" y="240" />
              <mxPoint x="260" y="240" />
              <mxPoint x="260" y="375" />
            </Array>
          </mxGeometry>
        </mxCell>
        <mxCell id="pDt8JMRhqxrCkGCLQyXo-60" value="tags" style="shape=table;startSize=30;container=1;collapsible=1;childLayout=tableLayout;fixedRows=1;rowLines=0;fontStyle=1;align=center;resizeLast=1;html=1;" vertex="1" parent="1">
          <mxGeometry x="50" y="70" width="180" height="90" as="geometry" />
        </mxCell>
        <mxCell id="pDt8JMRhqxrCkGCLQyXo-61" value="" style="shape=tableRow;horizontal=0;startSize=0;swimlaneHead=0;swimlaneBody=0;fillColor=none;collapsible=0;dropTarget=0;points=[[0,0.5],[1,0.5]];portConstraint=eastwest;top=0;left=0;right=0;bottom=1;" vertex="1" parent="pDt8JMRhqxrCkGCLQyXo-60">
          <mxGeometry y="30" width="180" height="30" as="geometry" />
        </mxCell>
        <mxCell id="pDt8JMRhqxrCkGCLQyXo-62" value="PK" style="shape=partialRectangle;connectable=0;fillColor=none;top=0;left=0;bottom=0;right=0;fontStyle=1;overflow=hidden;whiteSpace=wrap;html=1;" vertex="1" parent="pDt8JMRhqxrCkGCLQyXo-61">
          <mxGeometry width="30" height="30" as="geometry">
            <mxRectangle width="30" height="30" as="alternateBounds" />
          </mxGeometry>
        </mxCell>
        <mxCell id="pDt8JMRhqxrCkGCLQyXo-63" value="id: int" style="shape=partialRectangle;connectable=0;fillColor=none;top=0;left=0;bottom=0;right=0;align=left;spacingLeft=6;fontStyle=5;overflow=hidden;whiteSpace=wrap;html=1;" vertex="1" parent="pDt8JMRhqxrCkGCLQyXo-61">
          <mxGeometry x="30" width="150" height="30" as="geometry">
            <mxRectangle width="150" height="30" as="alternateBounds" />
          </mxGeometry>
        </mxCell>
        <mxCell id="pDt8JMRhqxrCkGCLQyXo-64" value="" style="shape=tableRow;horizontal=0;startSize=0;swimlaneHead=0;swimlaneBody=0;fillColor=none;collapsible=0;dropTarget=0;points=[[0,0.5],[1,0.5]];portConstraint=eastwest;top=0;left=0;right=0;bottom=0;" vertex="1" parent="pDt8JMRhqxrCkGCLQyXo-60">
          <mxGeometry y="60" width="180" height="30" as="geometry" />
        </mxCell>
        <mxCell id="pDt8JMRhqxrCkGCLQyXo-65" value="" style="shape=partialRectangle;connectable=0;fillColor=none;top=0;left=0;bottom=0;right=0;editable=1;overflow=hidden;whiteSpace=wrap;html=1;" vertex="1" parent="pDt8JMRhqxrCkGCLQyXo-64">
          <mxGeometry width="30" height="30" as="geometry">
            <mxRectangle width="30" height="30" as="alternateBounds" />
          </mxGeometry>
        </mxCell>
        <mxCell id="pDt8JMRhqxrCkGCLQyXo-66" value="tag_name: varchar 32" style="shape=partialRectangle;connectable=0;fillColor=none;top=0;left=0;bottom=0;right=0;align=left;spacingLeft=6;overflow=hidden;whiteSpace=wrap;html=1;" vertex="1" parent="pDt8JMRhqxrCkGCLQyXo-64">
          <mxGeometry x="30" width="150" height="30" as="geometry">
            <mxRectangle width="150" height="30" as="alternateBounds" />
          </mxGeometry>
        </mxCell>
        <mxCell id="pDt8JMRhqxrCkGCLQyXo-102" style="edgeStyle=orthogonalEdgeStyle;rounded=0;orthogonalLoop=1;jettySize=auto;html=1;endArrow=none;endFill=0;exitX=1.006;exitY=0.108;exitDx=0;exitDy=0;exitPerimeter=0;" edge="1" parent="1" source="pDt8JMRhqxrCkGCLQyXo-76">
          <mxGeometry relative="1" as="geometry">
            <mxPoint x="260" y="115" as="targetPoint" />
            <mxPoint x="230" y="220" as="sourcePoint" />
          </mxGeometry>
        </mxCell>
        <mxCell id="pDt8JMRhqxrCkGCLQyXo-76" value="news_tags" style="shape=table;startSize=30;container=1;collapsible=1;childLayout=tableLayout;fixedRows=1;rowLines=0;fontStyle=1;align=center;resizeLast=1;html=1;" vertex="1" parent="1">
          <mxGeometry x="50" y="180" width="180" height="120" as="geometry" />
        </mxCell>
        <mxCell id="pDt8JMRhqxrCkGCLQyXo-77" value="" style="shape=tableRow;horizontal=0;startSize=0;swimlaneHead=0;swimlaneBody=0;fillColor=none;collapsible=0;dropTarget=0;points=[[0,0.5],[1,0.5]];portConstraint=eastwest;top=0;left=0;right=0;bottom=1;" vertex="1" parent="pDt8JMRhqxrCkGCLQyXo-76">
          <mxGeometry y="30" width="180" height="30" as="geometry" />
        </mxCell>
        <mxCell id="pDt8JMRhqxrCkGCLQyXo-78" value="PK" style="shape=partialRectangle;connectable=0;fillColor=none;top=0;left=0;bottom=0;right=0;fontStyle=1;overflow=hidden;whiteSpace=wrap;html=1;" vertex="1" parent="pDt8JMRhqxrCkGCLQyXo-77">
          <mxGeometry width="30" height="30" as="geometry">
            <mxRectangle width="30" height="30" as="alternateBounds" />
          </mxGeometry>
        </mxCell>
        <mxCell id="pDt8JMRhqxrCkGCLQyXo-79" value="id: int" style="shape=partialRectangle;connectable=0;fillColor=none;top=0;left=0;bottom=0;right=0;align=left;spacingLeft=6;fontStyle=5;overflow=hidden;whiteSpace=wrap;html=1;" vertex="1" parent="pDt8JMRhqxrCkGCLQyXo-77">
          <mxGeometry x="30" width="150" height="30" as="geometry">
            <mxRectangle width="150" height="30" as="alternateBounds" />
          </mxGeometry>
        </mxCell>
        <mxCell id="pDt8JMRhqxrCkGCLQyXo-80" value="" style="shape=tableRow;horizontal=0;startSize=0;swimlaneHead=0;swimlaneBody=0;fillColor=none;collapsible=0;dropTarget=0;points=[[0,0.5],[1,0.5]];portConstraint=eastwest;top=0;left=0;right=0;bottom=0;" vertex="1" parent="pDt8JMRhqxrCkGCLQyXo-76">
          <mxGeometry y="60" width="180" height="30" as="geometry" />
        </mxCell>
        <mxCell id="pDt8JMRhqxrCkGCLQyXo-81" value="FK" style="shape=partialRectangle;connectable=0;fillColor=none;top=0;left=0;bottom=0;right=0;editable=1;overflow=hidden;whiteSpace=wrap;html=1;" vertex="1" parent="pDt8JMRhqxrCkGCLQyXo-80">
          <mxGeometry width="30" height="30" as="geometry">
            <mxRectangle width="30" height="30" as="alternateBounds" />
          </mxGeometry>
        </mxCell>
        <mxCell id="pDt8JMRhqxrCkGCLQyXo-82" value="tag_id : int" style="shape=partialRectangle;connectable=0;fillColor=none;top=0;left=0;bottom=0;right=0;align=left;spacingLeft=6;overflow=hidden;whiteSpace=wrap;html=1;" vertex="1" parent="pDt8JMRhqxrCkGCLQyXo-80">
          <mxGeometry x="30" width="150" height="30" as="geometry">
            <mxRectangle width="150" height="30" as="alternateBounds" />
          </mxGeometry>
        </mxCell>
        <mxCell id="pDt8JMRhqxrCkGCLQyXo-83" style="shape=tableRow;horizontal=0;startSize=0;swimlaneHead=0;swimlaneBody=0;fillColor=none;collapsible=0;dropTarget=0;points=[[0,0.5],[1,0.5]];portConstraint=eastwest;top=0;left=0;right=0;bottom=0;" vertex="1" parent="pDt8JMRhqxrCkGCLQyXo-76">
          <mxGeometry y="90" width="180" height="30" as="geometry" />
        </mxCell>
        <mxCell id="pDt8JMRhqxrCkGCLQyXo-84" value="FK" style="shape=partialRectangle;connectable=0;fillColor=none;top=0;left=0;bottom=0;right=0;editable=1;overflow=hidden;whiteSpace=wrap;html=1;" vertex="1" parent="pDt8JMRhqxrCkGCLQyXo-83">
          <mxGeometry width="30" height="30" as="geometry">
            <mxRectangle width="30" height="30" as="alternateBounds" />
          </mxGeometry>
        </mxCell>
        <mxCell id="pDt8JMRhqxrCkGCLQyXo-85" value="news_id : int" style="shape=partialRectangle;connectable=0;fillColor=none;top=0;left=0;bottom=0;right=0;align=left;spacingLeft=6;overflow=hidden;whiteSpace=wrap;html=1;" vertex="1" parent="pDt8JMRhqxrCkGCLQyXo-83">
          <mxGeometry x="30" width="150" height="30" as="geometry">
            <mxRectangle width="150" height="30" as="alternateBounds" />
          </mxGeometry>
        </mxCell>
        <mxCell id="pDt8JMRhqxrCkGCLQyXo-87" style="edgeStyle=orthogonalEdgeStyle;rounded=0;orthogonalLoop=1;jettySize=auto;html=1;entryX=0;entryY=0.5;entryDx=0;entryDy=0;endArrow=ERoneToMany;endFill=0;exitX=1;exitY=0.5;exitDx=0;exitDy=0;startArrow=ERzeroToMany;startFill=0;" edge="1" parent="1" source="pDt8JMRhqxrCkGCLQyXo-61" target="pDt8JMRhqxrCkGCLQyXo-21">
          <mxGeometry relative="1" as="geometry">
            <Array as="points">
              <mxPoint x="290" y="115" />
              <mxPoint x="290" y="115" />
            </Array>
          </mxGeometry>
        </mxCell>
        <mxCell id="pDt8JMRhqxrCkGCLQyXo-112" value="comments" style="shape=table;startSize=30;container=1;collapsible=1;childLayout=tableLayout;fixedRows=1;rowLines=0;fontStyle=1;align=center;resizeLast=1;html=1;" vertex="1" parent="1">
          <mxGeometry x="330" y="300" width="180" height="150" as="geometry" />
        </mxCell>
        <mxCell id="pDt8JMRhqxrCkGCLQyXo-113" value="" style="shape=tableRow;horizontal=0;startSize=0;swimlaneHead=0;swimlaneBody=0;fillColor=none;collapsible=0;dropTarget=0;points=[[0,0.5],[1,0.5]];portConstraint=eastwest;top=0;left=0;right=0;bottom=1;" vertex="1" parent="pDt8JMRhqxrCkGCLQyXo-112">
          <mxGeometry y="30" width="180" height="30" as="geometry" />
        </mxCell>
        <mxCell id="pDt8JMRhqxrCkGCLQyXo-114" value="PK" style="shape=partialRectangle;connectable=0;fillColor=none;top=0;left=0;bottom=0;right=0;fontStyle=1;overflow=hidden;whiteSpace=wrap;html=1;" vertex="1" parent="pDt8JMRhqxrCkGCLQyXo-113">
          <mxGeometry width="30" height="30" as="geometry">
            <mxRectangle width="30" height="30" as="alternateBounds" />
          </mxGeometry>
        </mxCell>
        <mxCell id="pDt8JMRhqxrCkGCLQyXo-115" value="id: int" style="shape=partialRectangle;connectable=0;fillColor=none;top=0;left=0;bottom=0;right=0;align=left;spacingLeft=6;fontStyle=5;overflow=hidden;whiteSpace=wrap;html=1;" vertex="1" parent="pDt8JMRhqxrCkGCLQyXo-113">
          <mxGeometry x="30" width="150" height="30" as="geometry">
            <mxRectangle width="150" height="30" as="alternateBounds" />
          </mxGeometry>
        </mxCell>
        <mxCell id="pDt8JMRhqxrCkGCLQyXo-116" value="" style="shape=tableRow;horizontal=0;startSize=0;swimlaneHead=0;swimlaneBody=0;fillColor=none;collapsible=0;dropTarget=0;points=[[0,0.5],[1,0.5]];portConstraint=eastwest;top=0;left=0;right=0;bottom=0;" vertex="1" parent="pDt8JMRhqxrCkGCLQyXo-112">
          <mxGeometry y="60" width="180" height="30" as="geometry" />
        </mxCell>
        <mxCell id="pDt8JMRhqxrCkGCLQyXo-117" value="FK" style="shape=partialRectangle;connectable=0;fillColor=none;top=0;left=0;bottom=0;right=0;editable=1;overflow=hidden;whiteSpace=wrap;html=1;" vertex="1" parent="pDt8JMRhqxrCkGCLQyXo-116">
          <mxGeometry width="30" height="30" as="geometry">
            <mxRectangle width="30" height="30" as="alternateBounds" />
          </mxGeometry>
        </mxCell>
        <mxCell id="pDt8JMRhqxrCkGCLQyXo-118" value="author : int" style="shape=partialRectangle;connectable=0;fillColor=none;top=0;left=0;bottom=0;right=0;align=left;spacingLeft=6;overflow=hidden;whiteSpace=wrap;html=1;" vertex="1" parent="pDt8JMRhqxrCkGCLQyXo-116">
          <mxGeometry x="30" width="150" height="30" as="geometry">
            <mxRectangle width="150" height="30" as="alternateBounds" />
          </mxGeometry>
        </mxCell>
        <mxCell id="pDt8JMRhqxrCkGCLQyXo-119" style="shape=tableRow;horizontal=0;startSize=0;swimlaneHead=0;swimlaneBody=0;fillColor=none;collapsible=0;dropTarget=0;points=[[0,0.5],[1,0.5]];portConstraint=eastwest;top=0;left=0;right=0;bottom=0;" vertex="1" parent="pDt8JMRhqxrCkGCLQyXo-112">
          <mxGeometry y="90" width="180" height="30" as="geometry" />
        </mxCell>
        <mxCell id="pDt8JMRhqxrCkGCLQyXo-120" style="shape=partialRectangle;connectable=0;fillColor=none;top=0;left=0;bottom=0;right=0;editable=1;overflow=hidden;whiteSpace=wrap;html=1;" vertex="1" parent="pDt8JMRhqxrCkGCLQyXo-119">
          <mxGeometry width="30" height="30" as="geometry">
            <mxRectangle width="30" height="30" as="alternateBounds" />
          </mxGeometry>
        </mxCell>
        <mxCell id="pDt8JMRhqxrCkGCLQyXo-121" value="comment_content: varchar 512" style="shape=partialRectangle;connectable=0;fillColor=none;top=0;left=0;bottom=0;right=0;align=left;spacingLeft=6;overflow=hidden;whiteSpace=wrap;html=1;" vertex="1" parent="pDt8JMRhqxrCkGCLQyXo-119">
          <mxGeometry x="30" width="150" height="30" as="geometry">
            <mxRectangle width="150" height="30" as="alternateBounds" />
          </mxGeometry>
        </mxCell>
        <mxCell id="pDt8JMRhqxrCkGCLQyXo-122" style="shape=tableRow;horizontal=0;startSize=0;swimlaneHead=0;swimlaneBody=0;fillColor=none;collapsible=0;dropTarget=0;points=[[0,0.5],[1,0.5]];portConstraint=eastwest;top=0;left=0;right=0;bottom=0;" vertex="1" parent="pDt8JMRhqxrCkGCLQyXo-112">
          <mxGeometry y="120" width="180" height="30" as="geometry" />
        </mxCell>
        <mxCell id="pDt8JMRhqxrCkGCLQyXo-123" value="FK" style="shape=partialRectangle;connectable=0;fillColor=none;top=0;left=0;bottom=0;right=0;editable=1;overflow=hidden;whiteSpace=wrap;html=1;" vertex="1" parent="pDt8JMRhqxrCkGCLQyXo-122">
          <mxGeometry width="30" height="30" as="geometry">
            <mxRectangle width="30" height="30" as="alternateBounds" />
          </mxGeometry>
        </mxCell>
        <mxCell id="pDt8JMRhqxrCkGCLQyXo-124" value="reply_to_comment : id" style="shape=partialRectangle;connectable=0;fillColor=none;top=0;left=0;bottom=0;right=0;align=left;spacingLeft=6;overflow=hidden;whiteSpace=wrap;html=1;" vertex="1" parent="pDt8JMRhqxrCkGCLQyXo-122">
          <mxGeometry x="30" width="150" height="30" as="geometry">
            <mxRectangle width="150" height="30" as="alternateBounds" />
          </mxGeometry>
        </mxCell>
        <mxCell id="pDt8JMRhqxrCkGCLQyXo-125" style="edgeStyle=orthogonalEdgeStyle;rounded=0;orthogonalLoop=1;jettySize=auto;html=1;entryX=1;entryY=0.5;entryDx=0;entryDy=0;endArrow=ERone;endFill=0;startArrow=ERone;startFill=0;" edge="1" parent="1" source="pDt8JMRhqxrCkGCLQyXo-116" target="pDt8JMRhqxrCkGCLQyXo-2">
          <mxGeometry relative="1" as="geometry">
            <Array as="points">
              <mxPoint x="750" y="375" />
              <mxPoint x="750" y="115" />
            </Array>
          </mxGeometry>
        </mxCell>
      </root>
    </mxGraphModel>
  </diagram>
</mxfile>
